.
 
http://www.scenetime.com    -   SceneTime [ We been having it ] !!!


How come you press harder on a remote control when you know the battery is dead? so you better seed to get speed ;)

        Seed back for speed


...................................NFO:.................................................Tomboy 1985 DVDRip XviD-TAKORiP
 
http://www.imdb.com/title/tt0090184/

Comedy 

November 1985 (West Germany)  

It's not just a man's world anymore.

Stars: Betsy Russell, Gerard Christopher and Kristi Somers  
 
Audio: English

Subtitles: none

Video: 720x416 (widescreen)

Audio: MP3 240kbs variable

Note: uncensored, some partial nudity.

Format                           : AVI
Format/Info                      : Audio Video Interleave
File size                        : 1.88 GiB
Duration                         : 1h 30mn
Overall bit rate                 : 2 981 Kbps
Writing application              : VirtualDubMod 1.5.4.1 (build 2178/release)
Writing library                  : VirtualDubMod build 2178/release

Video
ID                               : 0
Format                           : MPEG-4 Visual
Format profile                   : Advanced Simple@L5
Format settings, BVOP            : Yes
Format settings, QPel            : No
Format settings, GMC             : No warppoints
Format settings, Matrix          : Custom
Codec ID                         : XVID
Codec ID/Hint                    : XviD
Duration                         : 1h 30mn
Bit rate                         : 2 726 Kbps
Width                            : 720 pixels
Height                           : 416 pixels
Display aspect ratio             : 16:9
Frame rate                       : 23.976 fps
Color space                      : YUV
Chroma subsampling               : 4:2:0
Bit depth                        : 8 bits
Scan type                        : Progressive
Bits/(Pixel*Frame)               : 0.380
Stream size                      : 1.72 GiB (91%)
Writing library                  : XviD 1.2.0SMP (UTC 2006-01-08)

Audio
ID                               : 1
Format                           : MPEG Audio
Format version                   : Version 1
Format profile                   : Layer 3
Mode                             : Joint stereo
Codec ID                         : 55
Codec ID/Hint                    : MP3
Duration                         : 1h 30mn
Bit rate mode                    : Variable
Bit rate                         : 243 Kbps
Channel(s)                       : 2 channels
Sampling rate                    : 48.0 KHz
Stream size                      : 157 MiB (8%)
Alignment                        : Aligned on interleaves
Interleave, duration             : 24 ms (0.58 video frame)
Interleave, preload duration     : 458 ms
Writing library                  : LAME3.97b
Encoding settings                : -m j -V 4 -q 2 -lowpass 19.7 --abr